<svg xmlns="http://www.w3.org/2000/svg" viewBox="0 0 419 419"><defs><style>.cls-1{fill:#fff;}</style></defs><title>fandom_1</title><g id="Layer_2" data-name="Layer 2"><g id="Layer_1-2" data-name="Layer 1"><path class="cls-1" d="M191.14,296.67h0a12.92,12.92,0,0,1-3.81,9.58l-11.77,10-107-99.77V177.36L186.2,287.08C188,288.81,191.14,292.36,191.14,296.67Z"/><path class="cls-1" d="M89.79,148.53a28.49,28.49,0,0,1,9.07-20.84l36.92-34.86L252.65,203.18a28.35,28.35,0,0,1,0,41.72h0l-36.89,34.83L98.9,169.41A28.43,28.43,0,0,1,89.79,148.53Z"/><path class="cls-1" d="M230.91,148.8h0l38.46-36.31a32.64,32.64,0,0,1,44.2,0L353.24,150,292.7,207.12l-22.1-20.84Z"/><path class="cls-1" d="M194.13,333l160-152.82v36.32L221,344a9.94,9.94,0,0,1-7.19,3,10.64,10.64,0,0,1-7.48-3Z"/><path class="cls-1" d="M209.5,0C93.8,0,0,93.8,0,209.5S93.8,419,209.5,419,419,325.21,419,209.5,325.21,0,209.5,0ZM378.69,227.14,213.2,383.44l-1.81,1.7-1.8-1.71L43.94,227.13l-.74-.7V143.58l.77-.71L132.31,60.7,134,59.16l1.76,1.41,8.5,6.78.06,0,.09.09,67.86,64.4,75.92-72.36L290,57.8l1.8,1.73L378.69,143h0l.72.69v82.73Z"/></g></g></svg>